<svg width="21" height="21" viewBox="0 0 21 21" fill="none" xmlns="http://www.w3.org/2000/svg">
<g opacity="0.5">
<path d="M7.875 19.25H13.125C17.5 19.25 19.25 17.5 19.25 13.125V7.875C19.25 3.5 17.5 1.75 13.125 1.75H7.875C3.5 1.75 1.75 3.5 1.75 7.875V13.125C1.75 17.5 3.5 19.25 7.875 19.25Z" stroke="#000929" stroke-width="2" stroke-linecap="round" stroke-linejoin="round"/>
<path d="M7.875 8.75C8.8415 8.75 9.625 7.9665 9.625 7C9.625 6.0335 8.8415 5.25 7.875 5.25C6.9085 5.25 6.125 6.0335 6.125 7C6.125 7.9665 6.9085 8.75 7.875 8.75Z" stroke="#000929" stroke-width="2" stroke-linecap="round" stroke-linejoin="round"/>
<path d="M2.33624 16.5813L6.64999 13.685C7.34124 13.2213 8.33874 13.2738 8.95999 13.8075L9.24874 14.0613C9.93124 14.6475 11.0337 14.6475 11.7162 14.0613L15.3562 10.9375C16.0387 10.3513 17.1412 10.3513 17.8237 10.9375L19.25 12.1625" stroke="#000929" stroke-width="2" stroke-linecap="round" stroke-linejoin="round"/>
</g>
</svg>
